<svg width="52" height="52" viewBox="0 0 52 52" fill="none" xmlns="http://www.w3.org/2000/svg">
<path d="M14.0834 17.3334C15.8783 17.3334 17.3334 15.8783 17.3334 14.0834C17.3334 12.2884 15.8783 10.8334 14.0834 10.8334C12.2884 10.8334 10.8334 12.2884 10.8334 14.0834C10.8334 15.8783 12.2884 17.3334 14.0834 17.3334Z" fill="#C4D0EC"/>
<path d="M10.8334 21.6667C10.8334 20.4701 11.8034 19.5 13 19.5H15.1667C16.3633 19.5 17.3334 20.47 17.3334 21.6667V39C17.3334 40.1966 16.3633 41.1667 15.1667 41.1667H13C11.8034 41.1667 10.8334 40.1966 10.8334 39V21.6667Z" fill="#C4D0EC"/>
<path d="M23.8333 41.1667H26C27.1966 41.1667 28.1666 40.1966 28.1666 39V29.25C28.1666 26 34.6666 23.8333 34.6666 28.1667V39.0009C34.6666 40.1975 35.6366 41.1667 36.8333 41.1667H39C40.1966 41.1667 41.1666 40.1966 41.1666 39V26C41.1666 21.6667 37.9166 19.5 33.5833 19.5C29.25 19.5 28.1666 22.75 28.1666 22.75V21.6667C28.1666 20.47 27.1966 19.5 26 19.5H23.8333C22.6366 19.5 21.6666 20.4701 21.6666 21.6667V39C21.6666 40.1966 22.6366 41.1667 23.8333 41.1667Z" fill="#C4D0EC"/>
<path fill-rule="evenodd" clip-rule="evenodd" d="M43.3333 2.16663C46.9232 2.16663 49.8333 5.07678 49.8333 8.66663V43.3333C49.8333 46.9232 46.9232 49.8333 43.3333 49.8333H8.66663C5.07678 49.8333 2.16663 46.9232 2.16663 43.3333V8.66663C2.16663 5.07678 5.07678 2.16663 8.66663 2.16663H43.3333ZM43.3333 6.49996C44.5299 6.49996 45.5 7.47002 45.5 8.66663V43.3333C45.5 44.5299 44.5299 45.5 43.3333 45.5H8.66663C7.47002 45.5 6.49996 44.5299 6.49996 43.3333V8.66663C6.49996 7.47002 7.47002 6.49996 8.66663 6.49996H43.3333Z" fill="#C4D0EC"/>
</svg>
