<svg width="52" height="52" viewBox="0 0 52 52" fill="none" xmlns="http://www.w3.org/2000/svg">
<g clip-path="url(#clip0_40_43)">
<path fill-rule="evenodd" clip-rule="evenodd" d="M26 0C40.3598 0 52 11.9338 52 26.6576C52 38.433 44.5588 48.4223 34.2342 51.9505C32.916 52.2131 32.448 51.3806 32.448 50.6708C32.448 49.792 32.4792 46.9217 32.4792 43.3545C32.4792 40.8689 31.6472 39.2466 30.7138 38.4198C36.504 37.7594 42.588 35.505 42.588 25.2662C42.588 22.3542 41.5792 19.9779 39.91 18.1111C40.1804 17.4377 41.0722 14.7263 39.6552 11.0551C39.6552 11.0551 37.4764 10.3408 32.513 13.7884C30.4356 13.1982 28.21 12.9012 26 12.8908C23.79 12.9012 21.567 13.1982 19.4922 13.7884C14.5236 10.3408 12.3396 11.0551 12.3396 11.0551C10.9278 14.7263 11.8196 17.4377 12.0874 18.1111C10.426 19.9779 9.40941 22.3542 9.40941 25.2662C9.40941 35.479 15.4804 37.768 21.255 38.4414C20.5114 39.107 19.838 40.2812 19.604 42.005C18.122 42.6862 14.3572 43.8651 12.038 39.7909C12.038 39.7909 10.6626 37.2296 8.0522 37.0424C8.0522 37.0424 5.5172 37.0087 7.8754 38.6623C7.8754 38.6623 9.5784 39.4813 10.7614 42.5623C10.7614 42.5623 12.2876 47.3202 19.5208 45.7082C19.5338 47.9364 19.5572 50.0364 19.5572 50.6708C19.5572 51.3754 19.0788 52.2 17.7814 51.953C7.44899 48.43 0 38.4356 0 26.6576C0 11.9338 11.6428 0 26 0Z" fill="#C4D0EC"/>
</g>
<defs>
<clipPath id="clip0_40_43">
<rect width="52" height="52" fill="white"/>
</clipPath>
</defs>
</svg>
