<svg width="52" height="52" viewBox="0 0 52 52" fill="none" xmlns="http://www.w3.org/2000/svg">
<path d="M8.66667 39L19.5 26M43.3333 39L32.5 26M6.5 17.3334L22.1542 27.7693C23.5441 28.696 24.2389 29.1595 24.9901 29.3393C25.654 29.4986 26.346 29.4986 27.0099 29.3393C27.7611 29.1595 28.4559 28.696 29.8458 27.7693L45.5 17.3334M13.4333 41.1667H38.5667C40.9935 41.1667 42.2071 41.1667 43.134 40.6944C43.9493 40.279 44.6123 39.616 45.0277 38.8007C45.5 37.8738 45.5 36.6603 45.5 34.2334V17.7667C45.5 15.3398 45.5 14.1264 45.0277 13.1994C44.6123 12.384 43.9493 11.7211 43.134 11.3057C42.2071 10.8334 40.9935 10.8334 38.5667 10.8334H13.4333C11.0064 10.8334 9.79299 10.8334 8.86604 11.3057C8.05066 11.7211 7.38775 12.384 6.97231 13.1994C6.5 14.1264 6.5 15.3398 6.5 17.7667V34.2334C6.5 36.6603 6.5 37.8738 6.97231 38.8007C7.38775 39.616 8.05066 40.279 8.86604 40.6944C9.79299 41.1667 11.0064 41.1667 13.4333 41.1667Z" stroke="#C4D0EC" stroke-width="4.33333" stroke-linecap="round" stroke-linejoin="round"/>
</svg>
